# xmcd CD database file
#
# Track frame offsets:
#	150
#	13587
#	28197
#	41032
#	54197
#	72637
#	86750
#	99015
#	111220
#	122345
#	137360
#	151830
#	163392
#	177320
#	192872
#	206797
#	224735
#
# Disc length: 3245 seconds
#
# Revision: 4
# Processed by: cddbd v1.5.1PL0 Copyright (c) Steve Scherf et al.
# Submitted via: CDex 1.51
#
DISCID=ee0cab11
DTITLE=Lester Young - 1936 - 1943 - Columbia Jazz
DYEAR=2003
DGENRE=Jazz
TTITLE0=Shoe Shine Boy [Jones-Smith Incorporated] [1936]
TTITLE1=Boogie Woogie [Lester Young, Count Basie and His Orchestra] [1936]
TTITLE2=He Ain't Got Rhythm [Teddy Wilson and His Orchestra] [1937]
TTITLE3=I Must Have That Man [Teddy Wilson and His Orchestra] [1937]
TTITLE4=Honeysuckle Rose (Excerpt) [1938]
TTITLE5=Live And Love Tonight [Basie's Bad Boys] [1939]
TTITLE6=Pound Cake [Count Basie and His Orchestra] [1939]
TTITLE7=Exactly Like You [Glenn Hardman and His Hammond Five] [1939]
TTITLE8=Clap Hands, Here Comes Charlie [Count Basie and His Orchestra] [1939]
TTITLE9=Dickie's Dream [Count Basie's Kansas City Seven] [1939]
TTITLE10=Lesterleaps In [Count Basie's Kansas City Seven] [1939]
TTITLE11=Ham 'N' Eggs [Count Basie and His Orchestra] [1939]
TTITLE12=The Man I Love [Billie Holiday and Her Orchestra] 1939]
TTITLE13=Easy Does It [Count Basie and His Orchestra] [1940]
TTITLE14=Five O'Clock Whistle [Count Basie and His Orchestra] [1940]
TTITLE15=All Of Me [Billie Holiday and Her Orchestra] [1941]
TTITLE16=I Got Rhythm [1943]
EXTD=YEAR: 2003
EXTT0=
EXTT1=
EXTT2=
EXTT3=
EXTT4=
EXTT5=
EXTT6=
EXTT7=
EXTT8=
EXTT9=
EXTT10=
EXTT11=
EXTT12=
EXTT13=
EXTT14=
EXTT15=
EXTT16=
PLAYORDER=
